<svg xmlns="http://www.w3.org/2000/svg" viewBox="56 146 500 500">
<style>.st0{fill:#326CE5;}.st1{fill:#FFFFFF;}</style>
<path class="st0" d="M431,646H181c-69,0-125-56-125-125V271c0-69,56-125,125-125h250c69,0,125,56,125,125v250
    C556,590,500,646,431,646z"/>
<g>
    <path class="st1" d="M315.2,512.5c-8.2,8.2-16.8,16-26.4,22.6c-9.7,6.6-20.3,11.2-30.7,15.3c-0.5,1.8,0.1,2.4,0.9,3
        c9.9,7.5,15,18,17.8,29.8c0.9,3.8,1,7.7,1.1,11.6c0.1,13.3,0.1,26.5,0.1,39.8c0,0.9,0.2,1.8-0.6,2.9c-4,0.4-8.2,0.3-12.3,0.1
        c-1-1.8-0.7-3.4-0.7-4.9c0-11.6,0.1-23.2-0.1-34.7c-0.1-8.5-1.2-16.8-5.6-24.4c-5.4-9.2-13.2-14.5-23.5-16.1
        c-4.3-0.7-8.6,0.5-12.7,1.6c-8.4,2.3-17,4.3-25.6,4.7c-19.3,0.7-37.6-11.1-38.9-33.4c-0.3-4.6,0.6-9.2,2.3-13.3
        c2.6-6,0.9-10.9-3-15.4c-1.9-2.3-3.8-4.6-5.3-7.2c-2-3.4-2.2-6.8-0.5-10.4c0.7-1.5,1.2-3.1,1.7-4.6c-0.3-2.1-1.8-3-3-4.2
        c-5.5-5.2-6.2-9.4-2.9-16.4c1.2-2.5,2.1-5,2.9-7.6c1.5-5.1,0.6-6.9-4.6-8.3c-5.4-1.4-10.7-3.2-16-5c-9.9-3.4-12.6-11.1-9.5-20.1
        c1.7-5,4.8-9.5,7.3-14.1c6.2-11.5,12.5-23.1,18.8-34.6c2.6-4.8,5.2-9.6,7.9-14.3c3.1-5.5,4.5-11.2,3-17.6
        c-1.1-4.7-1.9-9.4-3.6-13.9c-0.7-1.7-0.9-3.5-1-5.3c-0.8-14.1,1.8-27.6,5.4-41.1c4.7-17.5,12.9-33.4,23.6-47.9
        c12.7-17.2,28-31.6,46.3-42.8c10.4-6.3,21.3-11.4,32.7-15.4c6.3-2.2,12.9-3.9,19.5-5.2c13.9-2.9,27.8-3.5,41.9-3.1
        c8,0.3,16,1.5,23.9,3.1c16.3,3.2,31.7,8.8,46.3,16.8c20,10.9,36.9,25.5,50.8,43.6c11.7,15.3,20.5,32.1,25.7,50.7
        c3.5,12.4,5.5,25.1,5.5,38c0,4.3-0.7,8.5-2,12.6c-1.3,4.1-2.2,8.3-3.1,12.4c-0.9,4.5,0.2,8.9,2.3,12.8c5.9,11.1,12.3,22,18.2,33.1
        c5.7,10.6,12.1,20.9,16.9,32c4.1,9.3,0.4,17.7-9.7,20.9c-5.9,1.9-11.9,3.7-17.8,5.5c-1.6,0.5-2.9,1.2-3.4,3.4
        c1.3,3.9,2.4,8.3,4.2,12.4c2.8,6.5,2.1,11.9-3.7,16.3c-0.9,0.7-1.6,1.7-2.4,2.5c-0.3,2.4,1.2,4.3,1.8,6.4c1.4,4.7,0.4,8.7-2.4,12.5
        c-1.1,1.5-2.3,2.8-3.4,4.3c-3.7,4.6-4.9,9.5-2.9,15.3c3.5,10.2,3.2,20.3-2.6,29.6c-4.5,7.3-10.7,12.6-19.1,15
        c-2.2,0.7-4.5,1.3-6.8,1.8c-5.7,1.4-11.3,0.2-16.9-0.7c-8.2-1.4-16.2-3.9-24.4-5c-8.8-1.2-16.3,2.4-22.7,8.3
        c-7.2,6.7-10.6,15.3-11.1,25c-0.7,13.8-0.1,27.6-0.4,41.4c0,1.7,0.3,3.4-0.7,5.3c-4.1,0.5-8.3,0.2-12.5,0.2
        c-1.3-1.4-0.8-2.9-0.8-4.2c0-12.9-0.2-25.8,0-38.7c0.2-12,3.4-23.1,10.5-32.8c3-4.1,6.9-7.4,10.6-10.4c0.4-2.2-0.8-2.8-2.2-3.4
        c-16.8-6.9-31.6-16.8-44.5-29.4c-1.9-1.9-3.9-3.8-5.9-5.6C316.7,513,316.3,513,315.2,512.5z M306.3,310.1c-0.5-1.3-1.1-1.9-1.7-2.6
        c-4.2-4.5-8.5-8.8-13.4-12.5c-15.1-11.7-31.6-20.3-50.5-24c-6.2-1.2-12.4-2.4-18.8-2.8c-5.9-0.3-11.7-0.2-17.5,0.3
        c-9.7,0.7-19.2,2.8-28.6,5.3c-2.4,0.6-3.6,2-4.2,4.5c-1.8,7.6-3.8,15.1-4.6,22.8c-0.7,7.2-1.7,14.4,0.6,21.6
        c1.8,5.8,3.1,11.7,3.6,17.8c0.4,4.9,0.2,9.8-2,14.1c-6.3,12.5-13.2,24.7-19.8,37.1c-5,9.3-10,18.5-14.9,27.8
        c-0.9,1.6-2.2,3.4-0.8,5.7c0.3,0.2,0.6,0.6,1.1,0.7c4.4,1.2,8.5,3.2,13.1,3.8c3.9,0.6,7.5,2.2,10.7,4.3c3.5,2.3,5.5,5.8,6.1,10
        c0.7,5.4-0.1,10.6-2.6,15.5c-0.9,1.7-1.7,3.5-1.9,5.5c1.3,2.8,3.4,4.2,6.6,4.5c8.7,0.8,17.4,0.4,26.1,0.5c1.4,0,2.9-0.4,4.5,0.6
        c0.6,4.1,0.6,8.4-0.1,13c-1.9,0-3.4,0-5,0c-7.4,0-14.8,0.1-22.2-0.3c-2.3-0.1-4.3,0.7-5.3,3.2c-0.9,2.4,0.3,3.9,1.8,5.5
        c3.3,3.5,6.1,7.4,7.6,12.1c2,6.3,0.7,12.2-1.3,18.2c-2.6,7.6-1.5,14.6,4.2,20.6c6.4,6.8,14.6,7.9,23,6.6c15.1-2.4,30-5.7,44.9-9.5
        c13.8-3.5,26.4-9.2,38-17.3c12.1-8.5,22.7-18.6,31.4-30.6c9.5-13.1,16.1-27.6,20.5-43c2.2-7.8,3.6-15.9,4.7-24
        c2-15.1,1.5-30.2-0.8-45.1c-2.6-17.4-8.3-34-17.1-49.4c-1.7-3-2.9-6.7-7-8.6c-8.9,13-15,27.2-19,42.3c-10.2,38.6-6,75.9,11.3,111.6
        c-1.9,1.7-3.5,3.1-5,4.4c-1.6,1.4-3.1,3-5.2,4.2c-12-21-18.2-43.4-19.7-66.9C274.4,378.7,283.3,342.5,306.3,310.1z M492.7,425.5
        c0.8-3.4-0.7-5.7-1.9-8c-3.9-7.3-7.8-14.7-11.7-22c-6.1-11.2-11.8-22.6-18.5-33.3c-5.6-9.1-6.2-18.4-4.6-28.4
        c0.9-5.2,3-10.2,3.4-15.6c1-13.8-1.6-27.1-4.8-40.4c-0.5-2.2-2-3.3-3.9-3.9c-8.5-3-17.4-4.6-26.2-5.4c-16.1-1.3-31.8,1-47.2,6
        c-17.8,5.8-33.1,15.4-46.5,28.3c-2.3,2.2-5,4.2-5.9,6.7c39.3,64.2,39.7,127.8,0.5,191.9c0.8,2,2.5,3.6,4.1,5.2
        c6.3,6.4,13.3,12,20.7,17.1c9.5,6.5,19.8,11.4,30.5,15.3c8.9,3.2,18.1,5.3,27.4,7.3c8.8,1.9,17.5,4.1,26.5,3.6
        c14.5-0.9,23.6-15.1,19-27.7c-2.4-6.6-3.4-13.3-0.6-20.1c1.6-3.9,4.2-7.2,6.8-10.3c1.5-1.7,2.4-3.4,1.4-5.6c-1-2.3-3.1-2.5-5.3-2.5
        c-6.8,0-13.5,0-20.3,0c-2.3,0-4.6-0.2-6.6-1.3c0-4.1,0-7.9,0-11.9c0.9-0.1,1.7-0.3,2.4-0.3c5.9-0.1,11.7-0.1,17.6-0.2
        c3.6-0.1,7.3-0.1,10.9-0.5c5.2-0.5,7.2-3.9,5.3-8.7c-0.8-1.9-1.6-3.8-2.2-5.8c-1.9-6.1-2.5-12.2,1.5-17.9c3.5-5,9-6.3,14.5-7.4
        C483.8,428.7,488.3,427.2,492.7,425.5z M445.3,257.5c-18-42.9-78.2-91.5-154.7-79.7c-36.9,5.6-67.6,22.6-91.8,51
        c-7.2,8.5-13.6,17.7-18,28c1.7,1.5,2.9,0.9,4.2,0.7c7.7-1.2,15.4-2.6,23.1-3.3c6.7-0.5,13.4,0,20.2,0.8c14.2,1.7,27.8,5,40.8,10.8
        c14.6,6.5,27.7,15.2,39.3,26.3c2.3,2.2,4,5.1,7.5,6.4c4.9-4.6,9.7-9.3,14.9-13.7c5.2-4.4,10.7-8.2,16.5-11.7
        c5.8-3.5,11.9-6.4,18.2-8.9c6.3-2.5,12.7-4.6,19.3-6c6.6-1.3,13.2-2.6,20-3.1c6.8-0.5,13.4-0.5,20.2-0.1
        C431.6,255.5,438.1,257.4,445.3,257.5z"/>
</g>
</svg>
